#!OML:ASF Y:\EmotionMaleHayes\Project 1\Capture day 1\Session 1\Male1.ASF
:FULLY-SPECIFIED
:DEGREES
257
root 29.3438 17.1672 -0.380781 569.022 82.5575 573.462
lowerback 12.2413 1.34848 2.04483
upperback 2.49233 2.26069 1.8868
thorax -4.24544 1.15277 0.459984
lowerneck -24.9493 -1.24607 3.00204
upperneck 25.1148 -2.60662 -0.639317
head 12.4198 -0.877268 -1.18937
rclavicle -2.37672e-014 -2.03754e-014
rhumerus -35.5318 -7.24964 -79.9313
rradius 45.7161
rwrist -17.3397
rhand -20.5868 -20.4857
rfingers 7.12502
rthumb 5.77332 -50.3871
lclavicle -2.37672e-014 -2.03754e-014
lhumerus -38.6432 -11.5501 91.9228
lradius 32.812
lwrist 12.0268
lhand -32.0045 -27.3543
lfingers 7.12502
lthumb -5.25305 2.56056
rfemur -1.69776 -1.4701 22.5466
rtibia 17.2425
rfoot -15.3292 -3.43492
rtoes 3.76696
lfemur -12.8825 1.50753 -11.6644
ltibia 62.1301
lfoot -8.1872 -2.63977
ltoes -5.39743
258
root 29.6093 17.2334 -0.402791 577.03 82.8089 581.666
lowerback 12.3004 1.70719 2.98952
upperback 2.39363 2.85139 1.73852
thorax -4.32478 1.42913 -0.319724
lowerneck -25.7866 -1.58573 3.23068
upperneck 26.0395 -3.22747 -0.616213
head 12.9379 -1.0936 -1.35155
rclavicle -8.36138e-015 -9.51682e-015
rhumerus -35.1343 -0.54347 -83.3511
rradius 47.25
rwrist -12.6371
rhand -19.8218 -20.193
rfingers 7.12502
rthumb 6.51182 -50.0729
lclavicle -8.36138e-015 -9.51682e-015
lhumerus -40.7812 -10.2111 90.3757
lradius 32.5495
lwrist 11.0688
lhand -32.256 -27.5677
lfingers 7.12502
lthumb -5.4959 2.34107
rfemur 0.214283 -0.995334 23.5508
rtibia 15.8643
rfoot -15.4489 -3.10554
rtoes 3.74094
lfemur -14.2418 2.18353 -10.9458
ltibia 60.3313
lfoot -8.64586 -1.80032
ltoes -5.67021
259
root 29.8743 17.2849 -0.42337 584.713 83.1071 589.373
lowerback 12.076 2.09906 3.69529
upperback 2.34841 3.43668 1.54287
thorax -4.18009 1.7087 -0.998227
lowerneck -24.9408 -1.70815 2.95781
upperneck 25.0622 -3.55231 0.388746
head 12.4052 -1.15073 -0.953869
rclavicle 4.45526e-014 3.38928e-014
rhumerus -35.0922 6.37147 -86.6193
rradius 49.5778
rwrist -10.7435
rhand -20.3807 -18.3716
rfingers 7.12502
rthumb 5.97224 -48.2674
lclavicle 4.45526e-014 3.38928e-014
lhumerus -43.0654 -9.79867 89.1276
lradius 32.9134
lwrist 10.8183
lhand -32.4995 -27.7048
lfingers 7.12502
lthumb -5.73098 2.19773
rfemur 1.96151 -0.497876 24.3079
rtibia 14.4894
rfoot -15.7291 -2.7648
rtoes 1.91135
lfemur -15.5881 2.90912 -10.4598
ltibia 58.26
lfoot -9.35693 -0.705184
ltoes -6.03191
260
root 30.1386 17.3212 -0.447439 592.83 83.3815 597.465
lowerback 11.7421 2.42972 4.236
upperback 2.26699 3.90986 1.33382
thorax -4.01043 1.93512 -1.5706
lowerneck -25.5662 -1.80929 3.98756
upperneck 25.8256 -3.82883 -0.66323
head 12.7764 -1.29239 -1.59525
rclavicle 2.2736e-015 -2.22639e-014
rhumerus -35.419 12.8344 -89.4588
rradius 52.7741
rwrist -8.36693
rhand -19.5757 -18.875
rfingers 7.12502
rthumb 6.74943 -48.7474
lclavicle 2.2736e-015 -2.22639e-014
lhumerus -45.7111 -10.0474 88.1783
lradius 33.7484
lwrist 11.4954
lhand -32.7152 -28.185
lfingers 7.12502
lthumb -5.93926 1.71172
rfemur 3.66228 -0.106286 24.8751
rtibia 13.0756
rfoot -16.3094 -2.25449
rtoes -2.58699
lfemur -16.8189 3.65119 -10.0713
ltibia 55.9596
lfoot -10.0542 0.480008
ltoes -6.13982
261
root 30.4022 17.3457 -0.477745 601.305 83.3849 605.957
lowerback 11.4458 2.70524 4.93096
upperback 2.25379 4.33089 1.16117
thorax -3.77224 2.14003 -2.17659
lowerneck -25.0659 -1.58919 4.37556
upperneck 25.2467 -3.7114 -0.412427
head 12.4511 -1.18667 -1.52447
rclavicle 2.49475e-014 8.54774e-015
rhumerus -35.6773 18.2838 -91.6643
rradius 56.2466
rwrist -6.49976
rhand -18.4064 -18.9494
rfingers 7.12502
rthumb 7.87814 -48.7826
lclavicle 2.49475e-014 8.54774e-015
lhumerus -48.411 -10.7642 87.4734
lradius 34.899
lwrist 12.7917
lhand -32.6086 -28.6166
lfingers 7.12502
lthumb -5.83631 1.283
rfemur 5.33779 0.00686748 25.4493
rtibia 11.8132
rfoot -16.8843 -1.464
rtoes -5.45406
lfemur -17.9414 4.32417 -9.56725
ltibia 53.5514
lfoot -10.6079 1.66784
ltoes -5.49819
262
root 30.667 17.3619 -0.50462 610.303 82.9849 615.032
lowerback 11.2586 3.02904 5.95444
upperback 2.23635 4.86413 1.05773
thorax -3.55471 2.39999 -2.90733
lowerneck -25.2792 -1.75258 4.45701
upperneck 25.2226 -4.08251 -0.110336
head 12.4807 -1.298 -1.49
rclavicle 3.19298e-014 -2.70347e-014
rhumerus -35.9398 22.9662 -93.442
rradius 59.807
rwrist -5.66021
rhand -18.278 -17.8987
rfingers 7.12502
rthumb 8.00207 -47.7272
lclavicle 3.19298e-014 -2.70347e-014
lhumerus -51.1593 -11.9779 87.0523
lradius 36.2968
lwrist 14.5467
lhand -32.2122 -28.6921
lfingers 7.12502
lthumb -5.4536 1.21777
rfemur 6.91551 0.117953 26.3547
rtibia 10.8449
rfoot -17.1988 -0.65678
rtoes -4.95812
lfemur -18.892 5.08329 -8.64443
ltibia 50.9391
lfoot -11.3942 2.93004
ltoes -5.41694
263
root 30.9307 17.3644 -0.525169 618.648 82.7029 623.351
lowerback 11.0243 3.45547 6.65478
upperback 2.17242 5.48519 0.908199
thorax -3.3551 2.70547 -3.50792
lowerneck -24.8581 -1.7159 4.55071
upperneck 24.7713 -4.11152 0.163882
head 12.2272 -1.28057 -1.39252
rclavicle 6.6245e-014 9.14409e-015
rhumerus -36.1789 27.2429 -94.8149
rradius 63.5495
rwrist -5.61779
rhand -17.6896 -18.4407
rfingers 7.12502
rthumb 8.56991 -48.2467
lclavicle 6.6245e-014 9.14409e-015
lhumerus -53.9039 -13.2877 86.769
lradius 37.8338
lwrist 16.1329
lhand -31.8178 -28.3734
lfingers 7.12502
lthumb -5.07278 1.54591
rfemur 8.26109 0.164907 26.8994
rtibia 10.0312
rfoot -17.0887 0.340601
rtoes -2.38872
lfemur -19.7147 5.98065 -7.94921
ltibia 47.9625
lfoot -12.1496 4.31452
ltoes -6.62263
264
root 31.195 17.3509 -0.540984 626.234 82.5845 630.84
lowerback 10.6514 3.89506 6.87302
upperback 2.13316 6.05348 0.771245
thorax -3.0926 2.99311 -3.80216
lowerneck -25.5361 -2.07839 4.77628
upperneck 25.3442 -4.63093 -0.322832
head 12.548 -1.53247 -1.72569
rclavicle 3.04638e-014 5.1684e-015
rhumerus -36.433 31.1064 -95.7833
rradius 67.6488
rwrist -6.07547
rhand -17.4885 -18.4697
rfingers 7.12502
rthumb 8.76396 -48.2677
lclavicle 3.04638e-014 5.1684e-015
lhumerus -56.6028 -14.3484 86.5075
lradius 39.2906
lwrist 17.115
lhand -31.5176 -28.3156
lfingers 7.12502
lthumb -4.78295 1.61042
rfemur 9.50234 0.0916997 27.0004
rtibia 9.2659
rfoot -16.8078 1.53609
rtoes 0.979581
lfemur -20.397 6.94202 -7.57224
ltibia 44.7692
lfoot -12.5475 5.75142
ltoes -6.95976
265
root 31.4547 17.3294 -0.549712 631.945 82.3033 636.66
lowerback 10.5102 4.23128 7.02621
upperback 2.1139 6.50062 0.699505
thorax -2.95918 3.21825 -3.99379
lowerneck -25.0151 -1.99426 4.96635
upperneck 24.9876 -4.52515 -0.375806
head 12.3024 -1.4913 -1.74206
rclavicle -2.29596e-014 5.96354e-015
rhumerus -36.7618 34.4396 -96.5788
rradius 71.9309
rwrist -7.19071
rhand -17.5837 -18.0617
rfingers 7.12502
rthumb 8.6721 -47.8636
lclavicle -2.29596e-014 5.96354e-015
lhumerus -59.3476 -15.3573 86.2921
lradius 40.6303
lwrist 17.951
lhand -31.2978 -28.5557
lfingers 7.12502
lthumb -4.57073 1.37496
rfemur 10.8564 0.255666 27.2812
rtibia 8.68345
rfoot -17.2841 2.16692
rtoes 1.06601
lfemur -20.7659 7.77357 -7.01639
ltibia 41.3587
lfoot -12.7568 7.20374
ltoes -6.4213
266
root 31.7197 17.2915 -0.525522 645.097 80.9433 650.656
lowerback 11.135 4.99932 7.36833
upperback 2.25263 7.62575 0.978949
thorax -3.02119 3.77904 -4.06019
lowerneck -24.8381 -2.12452 4.78015
upperneck 24.9577 -4.71912 -0.0440936
head 12.2667 -1.54837 -1.61485
rclavicle -3.29486e-014 -2.70347e-014
rhumerus -36.8396 37.5427 -97.0339
rradius 76.0638
rwrist -9.10616
rhand -17.4022 -18.9572
rfingers 7.12502
rthumb 8.84722 -48.7517
lclavicle -3.29486e-014 -2.70347e-014
lhumerus -62.0876 -16.3143 86.1944
lradius 41.9635
lwrist 18.7508
lhand -31.2517 -28.6168
lfingers 7.12502
lthumb -4.52615 1.31483
rfemur 12.6403 2.74305 29.2495
rtibia 8.60265
rfoot -18.5285 1.33593
rtoes -3.03119
lfemur -19.6735 9.91306 -4.66237
ltibia 37.3768
lfoot -12.9813 8.59198
ltoes -5.32766
267
root 32.0071 17.251 -0.584409 644.288 83.0176 649.028
lowerback 9.61545 5.04696 5.90396
upperback 2.18103 7.37117 0.268439
thorax -2.37895 3.67916 -3.81083
lowerneck -24.7736 -2.154 4.68014
upperneck 25.1044 -4.70287 -0.0916655
head 12.3128 -1.55141 -1.61488
rclavicle 2.9271e-014 1.15295e-014
rhumerus -36.5189 40.3104 -96.8459
rradius 80.069
rwrist -11.6549
rhand -17.1566 -19.3798
rfingers 7.12502
rthumb 9.08425 -49.1641
lclavicle 2.9271e-014 1.15295e-014
lhumerus -64.7733 -17.2409 86.2771
lradius 43.3586
lwrist 19.3681
lhand -31.4083 -28.6556
lfingers 7.12502
lthumb -4.67744 1.27279
rfemur 13.3315 -0.190713 25.5106
rtibia 7.96507
rfoot -19.415 3.79913
rtoes -5.93594
lfemur -20.7909 8.87773 -7.82035
ltibia 33.0243
lfoot -13.2141 9.67326
ltoes -5.29161
268
root 32.264 17.1989 -0.59987 645.552 80.2722 650.348
lowerback 9.48623 5.38487 8.54228
upperback 2.19927 8.09872 0.89302
thorax -1.93751 4.05616 -4.62991
lowerneck -25.2075 -2.4631 4.3249
upperneck 25.425 -5.04051 -0.0889242
head 12.5229 -1.72065 -1.62836
rclavicle 2.63887e-014 -1.43125e-014
rhumerus -35.7016 42.5455 -96.0007
rradius 84.0337
rwrist -14.7885
rhand -16.6107 -19.7708
rfingers 7.12502
rthumb 9.61096 -49.5316
lclavicle 2.63887e-014 -1.43125e-014
lhumerus -67.2717 -18.3253 86.4906
lradius 44.6891
lwrist 20.0144
lhand -31.5749 -28.7584
lfingers 7.12502
lthumb -4.83826 1.16636
rfemur 13.9957 0.0452223 28.5182
rtibia 8.45101
rfoot -20.3201 4.16862
rtoes -6.61469
lfemur -20.8025 9.98573 -4.28466
ltibia 29.0483
lfoot -13.3612 10.604
ltoes -4.31676
269
root 32.6216 17.101 -0.651575 651.692 81.3822 656.684
lowerback 7.99995 5.77705 7.38197
upperback 2.53379 8.34728 0.484713
thorax -0.83915 4.23799 -4.2334
lowerneck -25.1789 -2.44144 4.69173
upperneck 25.7754 -5.00743 -0.57629
head 12.6296 -1.72434 -1.87467
rclavicle -5.07398e-014 0
rhumerus -35.0798 45.0897 -95.4004
rradius 87.8461
rwrist -19.0411
rhand -17.5819 -19.8226
rfingers 7.12502
rthumb 8.67384 -49.6244
lclavicle -5.07398e-014 0
lhumerus -70.0572 -18.9496 86.5647
lradius 45.9626
lwrist 20.6456
lhand -31.6512 -28.8047
lfingers 7.12502
lthumb -4.91198 1.11841
rfemur 15.7475 -1.99101 25.3814
rtibia 8.23488
rfoot -21.1569 7.30907
rtoes -5.0059
lfemur -19.5415 9.82695 -6.15508
ltibia 23.5665
lfoot -13.646 11.1524
ltoes 0.031495
270
root 32.8987 17.0231 -0.66499 654.446 80.8359 659.506
lowerback 7.64026 6.00614 7.43353
upperback 2.47504 8.62759 0.598033
thorax -0.677487 4.38112 -4.11648
lowerneck -24.9357 -2.37108 4.75722
upperneck 26.0524 -4.88448 -0.667271
head 12.6922 -1.66369 -1.8988
rclavicle 2.32081e-014 4.77083e-015
rhumerus -34.0371 47.6097 -94.376
rradius 91.3702
rwrist -22.4932
rhand -17.9591 -20.1633
rfingers 7.12502
rthumb 8.30976 -49.9798
lclavicle 2.32081e-014 4.77083e-015
lhumerus -72.8465 -19.1956 86.4475
lradius 47.1602
lwrist 21.0457
lhand -31.7883 -28.8303
lfingers 7.12502
lthumb -5.04437 1.08963
rfemur 16.5427 -1.68873 25.6253
rtibia 8.83954
rfoot -22.3449 7.55625
rtoes -4.90637
lfemur -19.1137 9.57494 -5.37974
ltibia 19.0845
lfoot -13.7561 11.8304
ltoes -0.503126
